<mxfile host="app.diagrams.net" agent="Mozilla/5.0 (Macintosh; Intel Mac OS X 10_15_7) AppleWebKit/537.36 (KHTML, like Gecko) Chrome/135.0.0.0 Safari/537.36" version="26.2.14">
  <diagram name="Page-1" id="FwzL7yrmfEg8zIcOisd6">
    <mxGraphModel dx="1431" dy="958" grid="1" gridSize="10" guides="1" tooltips="1" connect="1" arrows="1" fold="1" page="1" pageScale="1" pageWidth="850" pageHeight="1100" math="0" shadow="0">
      <root>
        <mxCell id="0" />
        <mxCell id="1" parent="0" />
        <mxCell id="Z7YAl0fgNDEFoZv5XASM-1" value="Start" style="html=1;dashed=0;whiteSpace=wrap;shape=mxgraph.dfd.start" vertex="1" parent="1">
          <mxGeometry x="385" y="60" width="80" height="30" as="geometry" />
        </mxCell>
        <mxCell id="Z7YAl0fgNDEFoZv5XASM-2" value="Sign In" style="strokeWidth=2;html=1;shape=mxgraph.flowchart.display;whiteSpace=wrap;" vertex="1" parent="1">
          <mxGeometry x="383" y="120" width="83.33" height="50" as="geometry" />
        </mxCell>
        <mxCell id="Z7YAl0fgNDEFoZv5XASM-3" style="edgeStyle=orthogonalEdgeStyle;rounded=0;orthogonalLoop=1;jettySize=auto;html=1;entryX=0.5;entryY=0;entryDx=0;entryDy=0;entryPerimeter=0;" edge="1" parent="1" source="Z7YAl0fgNDEFoZv5XASM-1" target="Z7YAl0fgNDEFoZv5XASM-2">
          <mxGeometry relative="1" as="geometry" />
        </mxCell>
        <mxCell id="Z7YAl0fgNDEFoZv5XASM-11" style="edgeStyle=orthogonalEdgeStyle;rounded=0;orthogonalLoop=1;jettySize=auto;html=1;" edge="1" parent="1" source="Z7YAl0fgNDEFoZv5XASM-8" target="Z7YAl0fgNDEFoZv5XASM-10">
          <mxGeometry relative="1" as="geometry" />
        </mxCell>
        <mxCell id="Z7YAl0fgNDEFoZv5XASM-8" value="&lt;div&gt;&lt;br&gt;&lt;/div&gt;&lt;div&gt;Credentials&lt;/div&gt;" style="html=1;strokeWidth=2;shape=manualInput;whiteSpace=wrap;rounded=1;size=26;arcSize=11;" vertex="1" parent="1">
          <mxGeometry x="375" y="190" width="100" height="60" as="geometry" />
        </mxCell>
        <mxCell id="Z7YAl0fgNDEFoZv5XASM-9" style="edgeStyle=orthogonalEdgeStyle;rounded=0;orthogonalLoop=1;jettySize=auto;html=1;entryX=0.492;entryY=0.168;entryDx=0;entryDy=0;entryPerimeter=0;" edge="1" parent="1" source="Z7YAl0fgNDEFoZv5XASM-2" target="Z7YAl0fgNDEFoZv5XASM-8">
          <mxGeometry relative="1" as="geometry" />
        </mxCell>
        <mxCell id="Z7YAl0fgNDEFoZv5XASM-10" value="Verify Input" style="html=1;dashed=0;whiteSpace=wrap;" vertex="1" parent="1">
          <mxGeometry x="375" y="280" width="100" height="50" as="geometry" />
        </mxCell>
        <mxCell id="Z7YAl0fgNDEFoZv5XASM-21" style="edgeStyle=orthogonalEdgeStyle;rounded=0;orthogonalLoop=1;jettySize=auto;html=1;" edge="1" parent="1" source="Z7YAl0fgNDEFoZv5XASM-12">
          <mxGeometry relative="1" as="geometry">
            <mxPoint x="424.69696969696975" y="500" as="targetPoint" />
          </mxGeometry>
        </mxCell>
        <mxCell id="Z7YAl0fgNDEFoZv5XASM-35" value="Yes" style="edgeLabel;html=1;align=center;verticalAlign=middle;resizable=0;points=[];" vertex="1" connectable="0" parent="Z7YAl0fgNDEFoZv5XASM-21">
          <mxGeometry x="-0.3199" relative="1" as="geometry">
            <mxPoint as="offset" />
          </mxGeometry>
        </mxCell>
        <mxCell id="Z7YAl0fgNDEFoZv5XASM-26" style="edgeStyle=orthogonalEdgeStyle;rounded=0;orthogonalLoop=1;jettySize=auto;html=1;entryX=0.5;entryY=1;entryDx=0;entryDy=0;" edge="1" parent="1" source="Z7YAl0fgNDEFoZv5XASM-12" target="Z7YAl0fgNDEFoZv5XASM-25">
          <mxGeometry relative="1" as="geometry" />
        </mxCell>
        <mxCell id="Z7YAl0fgNDEFoZv5XASM-42" value="No" style="edgeLabel;html=1;align=center;verticalAlign=middle;resizable=0;points=[];" vertex="1" connectable="0" parent="Z7YAl0fgNDEFoZv5XASM-26">
          <mxGeometry x="-0.6444" y="2" relative="1" as="geometry">
            <mxPoint as="offset" />
          </mxGeometry>
        </mxCell>
        <mxCell id="Z7YAl0fgNDEFoZv5XASM-12" value="Credentials&lt;div&gt;valid?&lt;/div&gt;" style="strokeWidth=2;html=1;shape=mxgraph.flowchart.decision;whiteSpace=wrap;" vertex="1" parent="1">
          <mxGeometry x="375" y="360" width="100" height="100" as="geometry" />
        </mxCell>
        <mxCell id="Z7YAl0fgNDEFoZv5XASM-14" style="edgeStyle=orthogonalEdgeStyle;rounded=0;orthogonalLoop=1;jettySize=auto;html=1;entryX=0.5;entryY=0;entryDx=0;entryDy=0;entryPerimeter=0;" edge="1" parent="1" source="Z7YAl0fgNDEFoZv5XASM-10" target="Z7YAl0fgNDEFoZv5XASM-12">
          <mxGeometry relative="1" as="geometry" />
        </mxCell>
        <mxCell id="Z7YAl0fgNDEFoZv5XASM-27" style="edgeStyle=orthogonalEdgeStyle;rounded=0;orthogonalLoop=1;jettySize=auto;html=1;exitX=0.5;exitY=0;exitDx=0;exitDy=0;" edge="1" parent="1" source="Z7YAl0fgNDEFoZv5XASM-25">
          <mxGeometry relative="1" as="geometry">
            <mxPoint x="420" y="180" as="targetPoint" />
            <Array as="points">
              <mxPoint x="310" y="180" />
            </Array>
          </mxGeometry>
        </mxCell>
        <mxCell id="Z7YAl0fgNDEFoZv5XASM-25" value="Show error" style="html=1;dashed=0;whiteSpace=wrap;" vertex="1" parent="1">
          <mxGeometry x="270" y="285" width="80" height="40" as="geometry" />
        </mxCell>
        <mxCell id="Z7YAl0fgNDEFoZv5XASM-30" style="edgeStyle=orthogonalEdgeStyle;rounded=0;orthogonalLoop=1;jettySize=auto;html=1;entryX=0.5;entryY=0.5;entryDx=0;entryDy=-15;entryPerimeter=0;" edge="1" parent="1" target="Z7YAl0fgNDEFoZv5XASM-29">
          <mxGeometry relative="1" as="geometry">
            <mxPoint x="424.69696969696975" y="560" as="sourcePoint" />
          </mxGeometry>
        </mxCell>
        <mxCell id="Z7YAl0fgNDEFoZv5XASM-32" value="" style="verticalLabelPosition=bottom;verticalAlign=top;html=1;shape=process;whiteSpace=wrap;rounded=1;size=0.14;arcSize=6;" vertex="1" parent="1">
          <mxGeometry x="375" y="730" width="100" height="60" as="geometry" />
        </mxCell>
        <mxCell id="Z7YAl0fgNDEFoZv5XASM-33" value="Verification" style="text;html=1;align=center;verticalAlign=middle;whiteSpace=wrap;rounded=0;" vertex="1" parent="1">
          <mxGeometry x="395.34000000000003" y="745" width="60" height="30" as="geometry" />
        </mxCell>
        <mxCell id="Z7YAl0fgNDEFoZv5XASM-34" value="End" style="html=1;dashed=0;whiteSpace=wrap;shape=mxgraph.dfd.start" vertex="1" parent="1">
          <mxGeometry x="384.66" y="820" width="80" height="30" as="geometry" />
        </mxCell>
        <mxCell id="Z7YAl0fgNDEFoZv5XASM-36" value="Fetch Account" style="html=1;dashed=0;whiteSpace=wrap;" vertex="1" parent="1">
          <mxGeometry x="375" y="502" width="100" height="50" as="geometry" />
        </mxCell>
        <mxCell id="Z7YAl0fgNDEFoZv5XASM-37" value="&lt;div&gt;&lt;br&gt;&lt;/div&gt;Auth.User" style="strokeWidth=2;html=1;shape=mxgraph.flowchart.database;whiteSpace=wrap;" vertex="1" parent="1">
          <mxGeometry x="550" y="492" width="60" height="60" as="geometry" />
        </mxCell>
        <mxCell id="Z7YAl0fgNDEFoZv5XASM-38" style="edgeStyle=orthogonalEdgeStyle;rounded=0;orthogonalLoop=1;jettySize=auto;html=1;entryX=-0.029;entryY=0.464;entryDx=0;entryDy=0;entryPerimeter=0;" edge="1" parent="1" source="Z7YAl0fgNDEFoZv5XASM-36" target="Z7YAl0fgNDEFoZv5XASM-37">
          <mxGeometry relative="1" as="geometry">
            <mxPoint x="570" y="540" as="targetPoint" />
            <Array as="points">
              <mxPoint x="528" y="520" />
            </Array>
          </mxGeometry>
        </mxCell>
        <mxCell id="Z7YAl0fgNDEFoZv5XASM-41" style="edgeStyle=orthogonalEdgeStyle;rounded=0;orthogonalLoop=1;jettySize=auto;html=1;exitX=0.01;exitY=0.645;exitDx=0;exitDy=0;exitPerimeter=0;entryX=1.005;entryY=0.555;entryDx=0;entryDy=0;entryPerimeter=0;" edge="1" parent="1" source="Z7YAl0fgNDEFoZv5XASM-37" target="Z7YAl0fgNDEFoZv5XASM-36">
          <mxGeometry relative="1" as="geometry">
            <mxPoint x="480" y="530" as="targetPoint" />
            <Array as="points">
              <mxPoint x="540" y="531" />
            </Array>
          </mxGeometry>
        </mxCell>
        <mxCell id="Z7YAl0fgNDEFoZv5XASM-46" style="edgeStyle=orthogonalEdgeStyle;rounded=0;orthogonalLoop=1;jettySize=auto;html=1;" edge="1" parent="1" source="Z7YAl0fgNDEFoZv5XASM-43" target="Z7YAl0fgNDEFoZv5XASM-32">
          <mxGeometry relative="1" as="geometry" />
        </mxCell>
        <mxCell id="Z7YAl0fgNDEFoZv5XASM-48" value="Yes" style="edgeLabel;html=1;align=center;verticalAlign=middle;resizable=0;points=[];" vertex="1" connectable="0" parent="Z7YAl0fgNDEFoZv5XASM-46">
          <mxGeometry x="-0.2309" relative="1" as="geometry">
            <mxPoint as="offset" />
          </mxGeometry>
        </mxCell>
        <mxCell id="Z7YAl0fgNDEFoZv5XASM-50" style="edgeStyle=orthogonalEdgeStyle;rounded=0;orthogonalLoop=1;jettySize=auto;html=1;entryX=0.5;entryY=1;entryDx=0;entryDy=0;" edge="1" parent="1" source="Z7YAl0fgNDEFoZv5XASM-43" target="Z7YAl0fgNDEFoZv5XASM-25">
          <mxGeometry relative="1" as="geometry" />
        </mxCell>
        <mxCell id="Z7YAl0fgNDEFoZv5XASM-51" value="No" style="edgeLabel;html=1;align=center;verticalAlign=middle;resizable=0;points=[];" vertex="1" connectable="0" parent="Z7YAl0fgNDEFoZv5XASM-50">
          <mxGeometry x="-0.8558" y="2" relative="1" as="geometry">
            <mxPoint as="offset" />
          </mxGeometry>
        </mxCell>
        <mxCell id="Z7YAl0fgNDEFoZv5XASM-43" value="Account&amp;nbsp;&lt;div&gt;exists?&lt;/div&gt;" style="strokeWidth=2;html=1;shape=mxgraph.flowchart.decision;whiteSpace=wrap;" vertex="1" parent="1">
          <mxGeometry x="375" y="587.45" width="100" height="100" as="geometry" />
        </mxCell>
        <mxCell id="Z7YAl0fgNDEFoZv5XASM-44" style="edgeStyle=orthogonalEdgeStyle;rounded=0;orthogonalLoop=1;jettySize=auto;html=1;entryX=0.5;entryY=0;entryDx=0;entryDy=0;entryPerimeter=0;" edge="1" parent="1" source="Z7YAl0fgNDEFoZv5XASM-36" target="Z7YAl0fgNDEFoZv5XASM-43">
          <mxGeometry relative="1" as="geometry" />
        </mxCell>
        <mxCell id="Z7YAl0fgNDEFoZv5XASM-49" style="edgeStyle=orthogonalEdgeStyle;rounded=0;orthogonalLoop=1;jettySize=auto;html=1;entryX=0.5;entryY=0.5;entryDx=0;entryDy=-15;entryPerimeter=0;" edge="1" parent="1" source="Z7YAl0fgNDEFoZv5XASM-32" target="Z7YAl0fgNDEFoZv5XASM-34">
          <mxGeometry relative="1" as="geometry" />
        </mxCell>
      </root>
    </mxGraphModel>
  </diagram>
</mxfile>
